<svg width="21" height="21" viewBox="0 0 21 21" fill="none" xmlns="http://www.w3.org/2000/svg">
<path d="M11.4167 17.0279C11.1694 17.028 10.9276 16.9548 10.7219 16.8175C10.5162 16.6801 10.3559 16.4848 10.2613 16.2564C10.1666 16.0279 10.1419 15.7765 10.1902 15.5339C10.2384 15.2914 10.3576 15.0686 10.5325 14.8938L14.3542 11.0729C14.393 11.0342 14.4238 10.9883 14.4448 10.9376C14.4658 10.887 14.4766 10.8327 14.4766 10.7779C14.4766 10.7231 14.4658 10.6689 14.4448 10.6182C14.4238 10.5676 14.393 10.5216 14.3542 10.4829L10.5358 6.6621C10.3013 6.42772 10.1696 6.10978 10.1695 5.77823C10.1694 5.44668 10.301 5.12868 10.5354 4.89419C10.7698 4.65969 11.0877 4.52791 11.4193 4.52783C11.7508 4.52775 12.0688 4.65939 12.3033 4.89377L16.125 8.71544C16.671 9.26297 16.9777 10.0047 16.9777 10.7779C16.9777 11.5512 16.671 12.2929 16.125 12.8404L12.3033 16.6621C12.1869 16.7785 12.0487 16.8707 11.8965 16.9334C11.7443 16.9962 11.5813 17.0283 11.4167 17.0279Z" fill="#1C1B1C"/>
<path d="M5.58327 17.0279C5.33596 17.028 5.09418 16.9548 4.88851 16.8175C4.68284 16.6801 4.52254 16.4848 4.42789 16.2564C4.33323 16.0279 4.30847 15.7765 4.35675 15.5339C4.40503 15.2914 4.52417 15.0686 4.6991 14.8938L8.81827 10.7779L4.70244 6.6621C4.46794 6.42772 4.33616 6.10978 4.33608 5.77823C4.336 5.44668 4.46763 5.12868 4.70202 4.89419C4.9364 4.65969 5.25434 4.52791 5.58589 4.52783C5.91744 4.52775 6.23544 4.65939 6.46994 4.89377L11.4699 9.89377C11.5861 10.0099 11.6782 10.1477 11.7411 10.2994C11.804 10.4511 11.8363 10.6137 11.8363 10.7779C11.8363 10.9422 11.804 11.1048 11.7411 11.2565C11.6782 11.4082 11.5861 11.546 11.4699 11.6621L6.46994 16.6621C6.35351 16.7785 6.21525 16.8707 6.06309 16.9334C5.91093 16.9962 5.74787 17.0283 5.58327 17.0279Z" fill="#374957"/>
</svg>
