<svg width="17" height="17" viewBox="0 0 17 17" fill="none" xmlns="http://www.w3.org/2000/svg">
<g clip-path="url(#clip0_409_629)">
<path d="M9.16648 1.16675C9.16648 0.989944 9.23672 0.820375 9.36175 0.69535C9.48677 0.570326 9.65634 0.500088 9.83315 0.500088C11.6007 0.502029 13.2952 1.20503 14.545 2.45485C15.7949 3.70468 16.4979 5.39924 16.4998 7.16676C16.4998 7.34357 16.4296 7.51314 16.3045 7.63816C16.1795 7.76318 16.01 7.83342 15.8331 7.83342C15.6563 7.83342 15.4868 7.76318 15.3617 7.63816C15.2367 7.51314 15.1665 7.34357 15.1665 7.16676C15.1649 5.75276 14.6025 4.39712 13.6026 3.39727C12.6028 2.39742 11.2471 1.83501 9.83315 1.83342C9.65634 1.83342 9.48677 1.76318 9.36175 1.63816C9.23672 1.51314 9.16648 1.34357 9.16648 1.16675ZM9.83315 4.50009C10.5404 4.50009 11.2187 4.78104 11.7188 5.28114C12.2189 5.78123 12.4998 6.45951 12.4998 7.16676C12.4998 7.34357 12.57 7.51314 12.6951 7.63816C12.8201 7.76318 12.9897 7.83342 13.1665 7.83342C13.3433 7.83342 13.5129 7.76318 13.6379 7.63816C13.7629 7.51314 13.8331 7.34357 13.8331 7.16676C13.8321 6.10621 13.4103 5.08941 12.6604 4.3395C11.9105 3.58958 10.8937 3.16781 9.83315 3.16675C9.65634 3.16675 9.48677 3.23699 9.36175 3.36202C9.23672 3.48704 9.16648 3.65661 9.16648 3.83342C9.16648 4.01023 9.23672 4.1798 9.36175 4.30483C9.48677 4.42985 9.65634 4.50009 9.83315 4.50009ZM15.8951 11.6594C16.2815 12.0468 16.4984 12.5716 16.4984 13.1188C16.4984 13.6659 16.2815 14.1907 15.8951 14.5781L15.2885 15.2774C9.82848 20.5048 -3.45817 7.22142 1.68849 1.74409L2.45516 1.07742C2.843 0.701873 3.36311 0.494121 3.90296 0.499111C4.44281 0.504102 4.95899 0.721434 5.33982 1.10409C5.36049 1.12475 6.59582 2.72942 6.59582 2.72942C6.96237 3.11451 7.16642 3.62604 7.16555 4.15769C7.16468 4.68934 6.95896 5.2002 6.59115 5.58409L5.81915 6.55476C6.24639 7.59283 6.87453 8.53625 7.66749 9.33082C8.46045 10.1254 9.40261 10.7554 10.4398 11.1848L11.4165 10.4081C11.8004 10.0406 12.3112 9.83509 12.8427 9.83434C13.3742 9.8336 13.8855 10.0376 14.2705 10.4041C14.2705 10.4041 15.8745 11.6388 15.8951 11.6594ZM14.9778 12.6288C14.9778 12.6288 13.3825 11.4014 13.3618 11.3808C13.2245 11.2446 13.0389 11.1682 12.8455 11.1682C12.6521 11.1682 12.4665 11.2446 12.3291 11.3808C12.3111 11.3994 10.9665 12.4708 10.9665 12.4708C10.8759 12.5429 10.768 12.5902 10.6536 12.6079C10.5391 12.6257 10.422 12.6133 10.3138 12.5721C8.97012 12.0718 7.74964 11.2886 6.73504 10.2755C5.72044 9.26237 4.93542 8.04304 4.43316 6.70009C4.38862 6.59039 4.3741 6.47081 4.39109 6.35365C4.40808 6.23648 4.45597 6.12595 4.52982 6.03342C4.52982 6.03342 5.60115 4.68809 5.61915 4.67076C5.75533 4.53341 5.83174 4.34783 5.83174 4.15442C5.83174 3.96101 5.75533 3.77543 5.61915 3.63809C5.59849 3.61809 4.37116 2.02142 4.37116 2.02142C4.23176 1.89643 4.04983 1.82949 3.86266 1.83432C3.67549 1.83915 3.49725 1.9154 3.36449 2.04742L2.59783 2.71409C-1.1635 7.23676 10.3505 18.1121 14.3138 14.3668L14.9211 13.6668C15.0635 13.5349 15.1489 13.3529 15.1595 13.1592C15.1701 12.9655 15.1049 12.7753 14.9778 12.6288Z" fill="#828282"/>
</g>
<defs>
<clipPath id="clip0_409_629">
<rect width="16" height="16" fill="white" transform="translate(0.5 0.5)"/>
</clipPath>
</defs>
</svg>
