<svg width="17" height="17" viewBox="0 0 17 17" fill="none" xmlns="http://www.w3.org/2000/svg">
<g clip-path="url(#clip0_409_54)">
<path d="M8.49988 11.1669C8.81032 11.1675 9.1166 11.0958 9.39454 10.9575L10.7279 10.2909C11.4075 9.95343 11.8362 9.25896 11.8332 8.50021V6.52221C11.8356 5.76412 11.4069 5.07055 10.7279 4.73355L9.39454 4.0669C8.83119 3.7869 8.16923 3.7869 7.60588 4.0669L6.27254 4.73355C5.59323 5.07037 5.16432 5.76399 5.16654 6.52221V8.50021C5.1641 9.25849 5.5927 9.9523 6.27188 10.2896L7.60523 10.9562C7.88304 11.0949 8.18935 11.1671 8.49988 11.1669ZM6.49988 8.50021V6.52221C6.50095 6.45421 6.51241 6.38674 6.53388 6.32221L7.98723 7.04887C8.30998 7.21018 8.68982 7.21018 9.01257 7.04887L10.4659 6.32221C10.4874 6.38674 10.4989 6.45421 10.4999 6.52221V8.50021C10.501 8.75315 10.3579 8.98465 10.1313 9.09687L8.79791 9.76352C8.60991 9.85655 8.38926 9.85655 8.20126 9.76352L6.86791 9.09687C6.64145 8.98446 6.4987 8.75302 6.49988 8.50021ZM13.1665 15.1669H11.3605L13.6852 13.0189C16.5491 10.1551 16.5492 5.51187 13.6854 2.64796C10.8215 -0.215945 6.17838 -0.215976 3.31448 2.6478C0.45057 5.51159 0.450508 10.1548 3.31432 13.0187C3.3206 13.025 5.63923 15.1669 5.63923 15.1669H3.83323C3.46504 15.1669 3.16657 15.4653 3.16657 15.8335C3.16657 16.2017 3.46504 16.5002 3.83323 16.5002H13.1666C13.5348 16.5002 13.8332 16.2017 13.8332 15.8335C13.8332 15.4654 13.5347 15.1669 13.1665 15.1669ZM4.25723 3.59087C6.59523 1.24237 10.3944 1.23387 12.7429 3.57187C15.0914 5.90987 15.0999 9.70902 12.7619 12.0575L10.1052 14.5115C9.19848 15.3662 7.78129 15.3612 6.88057 14.5002L4.25723 12.0762C1.9177 9.73152 1.91773 5.93555 4.25723 3.59087Z" fill="#828282"/>
</g>
<defs>
<clipPath id="clip0_409_54">
<rect width="16" height="16" fill="white" transform="translate(0.5 0.5)"/>
</clipPath>
</defs>
</svg>
