<svg width="45" height="44" viewBox="0 0 45 44" fill="none" xmlns="http://www.w3.org/2000/svg">
<path d="M40.3384 18.1681C40.3384 18.0764 40.32 17.9848 40.2834 17.8931C40.2467 17.8014 40.21 17.7281 40.155 17.6364C40.1367 17.5814 40.1184 17.5448 40.0817 17.4898L34.5817 10.1564C34.5817 10.1564 34.545 10.1198 34.5267 10.1014C34.27 9.80811 33.9034 9.60644 33.4817 9.60644H23.8567V5.48145C23.8567 4.72978 23.2334 4.10645 22.4817 4.10645C21.73 4.10645 21.1067 4.72978 21.1067 5.48145V9.60644H11.4817C11.06 9.60644 10.6934 9.80811 10.4367 10.1014C10.4367 10.1198 10.4 10.1198 10.3817 10.1564L4.88171 17.4898C4.88171 17.4898 4.84505 17.5814 4.80838 17.6364C4.75338 17.7098 4.71671 17.8014 4.68005 17.8931C4.64338 17.9848 4.64338 18.0764 4.62505 18.1681C4.62505 18.2231 4.58838 18.2781 4.58838 18.3331V20.1664C4.58838 23.9614 7.66838 27.0414 11.4634 27.0414C15.2584 27.0414 18.3384 23.9614 18.3384 20.1664V18.3331C18.3384 18.3331 18.32 18.2231 18.3017 18.1681C18.3017 18.0764 18.2834 17.9848 18.2467 17.8931C18.21 17.8014 18.1734 17.7281 18.1184 17.6364C18.1 17.5814 18.0817 17.5448 18.045 17.4898L14.195 12.3564H21.07V31.6064H16.945C14.1584 31.6064 11.9034 33.8614 11.9034 36.6481C11.9034 38.4081 13.3517 39.8564 15.1117 39.8564H29.7784C31.5384 39.8564 32.9867 38.4081 32.9867 36.6481C32.9867 33.8614 30.7317 31.6064 27.945 31.6064H23.82V12.3748H30.695L26.845 17.5081C26.845 17.5081 26.8084 17.5998 26.7717 17.6548C26.7167 17.7281 26.68 17.8198 26.6434 17.9114C26.6067 18.0031 26.6067 18.0948 26.5884 18.1864C26.5884 18.2414 26.5517 18.2964 26.5517 18.3514V20.1848C26.5517 23.9798 29.6317 27.0598 33.4267 27.0598C37.2217 27.0598 40.3017 23.9798 40.3017 20.1848V18.3514C40.3017 18.3514 40.2834 18.2414 40.265 18.1864L40.3384 18.1681ZM11.5 13.2914L14.25 16.9581H8.75005L11.5 13.2914ZM15.625 20.1664C15.625 22.4398 13.7734 24.2914 11.5 24.2914C9.22671 24.2914 7.37505 22.4398 7.37505 20.1664V19.7081H15.625V20.1664ZM30.2917 36.6664C30.2917 36.9231 30.09 37.1248 29.8334 37.1248H15.1667C14.91 37.1248 14.7084 36.9231 14.7084 36.6664C14.7084 35.4014 15.735 34.3748 17 34.3748H28C29.265 34.3748 30.2917 35.4014 30.2917 36.6664ZM36.25 16.9581H30.75L33.5 13.2914L36.25 16.9581ZM37.625 20.1664C37.625 22.4398 35.7734 24.2914 33.5 24.2914C31.2267 24.2914 29.375 22.4398 29.375 20.1664V19.7081H37.625V20.1664Z" fill="#4F473F"/>
</svg>
