<svg width="45" height="44" viewBox="0 0 45 44" fill="none" xmlns="http://www.w3.org/2000/svg">
<g clip-path="url(#clip0_409_561)">
<path d="M13.3333 25.6667C13.3333 26.1529 13.1402 26.6192 12.7964 26.963C12.4525 27.3068 11.9862 27.5 11.5 27.5H9.66667C9.18044 27.5 8.71412 27.3068 8.3703 26.963C8.02649 26.6192 7.83333 26.1529 7.83333 25.6667C7.83333 25.1804 8.02649 24.7141 8.3703 24.3703C8.71412 24.0265 9.18044 23.8333 9.66667 23.8333H11.5C11.9862 23.8333 12.4525 24.0265 12.7964 24.3703C13.1402 24.7141 13.3333 25.1804 13.3333 25.6667ZM20.6667 23.8333H18.8333C18.3471 23.8333 17.8808 24.0265 17.537 24.3703C17.1932 24.7141 17 25.1804 17 25.6667C17 26.1529 17.1932 26.6192 17.537 26.963C17.8808 27.3068 18.3471 27.5 18.8333 27.5H20.6667C21.1529 27.5 21.6192 27.3068 21.963 26.963C22.3068 26.6192 22.5 26.1529 22.5 25.6667C22.5 25.1804 22.3068 24.7141 21.963 24.3703C21.6192 24.0265 21.1529 23.8333 20.6667 23.8333ZM11.5 31.1667H9.66667C9.18044 31.1667 8.71412 31.3598 8.3703 31.7036C8.02649 32.0475 7.83333 32.5138 7.83333 33C7.83333 33.4862 8.02649 33.9525 8.3703 34.2964C8.71412 34.6402 9.18044 34.8333 9.66667 34.8333H11.5C11.9862 34.8333 12.4525 34.6402 12.7964 34.2964C13.1402 33.9525 13.3333 33.4862 13.3333 33C13.3333 32.5138 13.1402 32.0475 12.7964 31.7036C12.4525 31.3598 11.9862 31.1667 11.5 31.1667ZM20.6667 31.1667H18.8333C18.3471 31.1667 17.8808 31.3598 17.537 31.7036C17.1932 32.0475 17 32.5138 17 33C17 33.4862 17.1932 33.9525 17.537 34.2964C17.8808 34.6402 18.3471 34.8333 18.8333 34.8333H20.6667C21.1529 34.8333 21.6192 34.6402 21.963 34.2964C22.3068 33.9525 22.5 33.4862 22.5 33C22.5 32.5138 22.3068 32.0475 21.963 31.7036C21.6192 31.3598 21.1529 31.1667 20.6667 31.1667ZM11.5 9.16667H9.66667C9.18044 9.16667 8.71412 9.35982 8.3703 9.70364C8.02649 10.0475 7.83333 10.5138 7.83333 11C7.83333 11.4862 8.02649 11.9525 8.3703 12.2964C8.71412 12.6402 9.18044 12.8333 9.66667 12.8333H11.5C11.9862 12.8333 12.4525 12.6402 12.7964 12.2964C13.1402 11.9525 13.3333 11.4862 13.3333 11C13.3333 10.5138 13.1402 10.0475 12.7964 9.70364C12.4525 9.35982 11.9862 9.16667 11.5 9.16667ZM20.6667 9.16667H18.8333C18.3471 9.16667 17.8808 9.35982 17.537 9.70364C17.1932 10.0475 17 10.5138 17 11C17 11.4862 17.1932 11.9525 17.537 12.2964C17.8808 12.6402 18.3471 12.8333 18.8333 12.8333H20.6667C21.1529 12.8333 21.6192 12.6402 21.963 12.2964C22.3068 11.9525 22.5 11.4862 22.5 11C22.5 10.5138 22.3068 10.0475 21.963 9.70364C21.6192 9.35982 21.1529 9.16667 20.6667 9.16667ZM11.5 16.5H9.66667C9.18044 16.5 8.71412 16.6932 8.3703 17.037C8.02649 17.3808 7.83333 17.8471 7.83333 18.3333C7.83333 18.8196 8.02649 19.2859 8.3703 19.6297C8.71412 19.9735 9.18044 20.1667 9.66667 20.1667H11.5C11.9862 20.1667 12.4525 19.9735 12.7964 19.6297C13.1402 19.2859 13.3333 18.8196 13.3333 18.3333C13.3333 17.8471 13.1402 17.3808 12.7964 17.037C12.4525 16.6932 11.9862 16.5 11.5 16.5ZM20.6667 16.5H18.8333C18.3471 16.5 17.8808 16.6932 17.537 17.037C17.1932 17.3808 17 17.8471 17 18.3333C17 18.8196 17.1932 19.2859 17.537 19.6297C17.8808 19.9735 18.3471 20.1667 18.8333 20.1667H20.6667C21.1529 20.1667 21.6192 19.9735 21.963 19.6297C22.3068 19.2859 22.5 18.8196 22.5 18.3333C22.5 17.8471 22.3068 17.3808 21.963 17.037C21.6192 16.6932 21.1529 16.5 20.6667 16.5ZM44.5 18.3333V34.8333C44.4971 37.2636 43.5304 39.5935 41.8119 41.3119C40.0935 43.0304 37.7636 43.9971 35.3333 44H9.66667C7.23641 43.9971 4.90652 43.0304 3.18807 41.3119C1.46962 39.5935 0.502911 37.2636 0.5 34.8333L0.5 9.16667C0.502911 6.73641 1.46962 4.40652 3.18807 2.68807C4.90652 0.969617 7.23641 0.00291107 9.66667 0L20.6667 0C23.0969 0.00291107 25.4268 0.969617 27.1453 2.68807C28.8637 4.40652 29.8304 6.73641 29.8333 9.16667H35.3333C37.7636 9.16958 40.0935 10.1363 41.8119 11.8547C43.5304 13.5732 44.4971 15.9031 44.5 18.3333ZM9.66667 40.3333H26.1667V9.16667C26.1667 7.70798 25.5872 6.30903 24.5558 5.27758C23.5243 4.24613 22.1254 3.66667 20.6667 3.66667H9.66667C8.20798 3.66667 6.80903 4.24613 5.77758 5.27758C4.74613 6.30903 4.16667 7.70798 4.16667 9.16667V34.8333C4.16667 36.292 4.74613 37.691 5.77758 38.7224C6.80903 39.7539 8.20798 40.3333 9.66667 40.3333ZM40.8333 18.3333C40.8333 16.8746 40.2539 15.4757 39.2224 14.4442C38.191 13.4128 36.792 12.8333 35.3333 12.8333H29.8333V40.3333H35.3333C36.792 40.3333 38.191 39.7539 39.2224 38.7224C40.2539 37.691 40.8333 36.292 40.8333 34.8333V18.3333ZM35.3333 23.8333C34.9707 23.8333 34.6163 23.9409 34.3148 24.1423C34.0133 24.3438 33.7783 24.6301 33.6396 24.9651C33.5008 25.3001 33.4645 25.6687 33.5352 26.0243C33.606 26.38 33.7806 26.7066 34.037 26.963C34.2934 27.2194 34.62 27.394 34.9757 27.4648C35.3313 27.5355 35.6999 27.4992 36.0349 27.3604C36.3699 27.2217 36.6562 26.9867 36.8577 26.6852C37.0591 26.3837 37.1667 26.0293 37.1667 25.6667C37.1667 25.1804 36.9735 24.7141 36.6297 24.3703C36.2859 24.0265 35.8196 23.8333 35.3333 23.8333ZM35.3333 31.1667C34.9707 31.1667 34.6163 31.2742 34.3148 31.4756C34.0133 31.6771 33.7783 31.9634 33.6396 32.2984C33.5008 32.6334 33.4645 33.002 33.5352 33.3577C33.606 33.7133 33.7806 34.04 34.037 34.2964C34.2934 34.5528 34.62 34.7274 34.9757 34.7981C35.3313 34.8688 35.6999 34.8325 36.0349 34.6938C36.3699 34.555 36.6562 34.32 36.8577 34.0185C37.0591 33.7171 37.1667 33.3626 37.1667 33C37.1667 32.5138 36.9735 32.0475 36.6297 31.7036C36.2859 31.3598 35.8196 31.1667 35.3333 31.1667ZM35.3333 16.5C34.9707 16.5 34.6163 16.6075 34.3148 16.809C34.0133 17.0104 33.7783 17.2967 33.6396 17.6317C33.5008 17.9667 33.4645 18.3354 33.5352 18.691C33.606 19.0466 33.7806 19.3733 34.037 19.6297C34.2934 19.8861 34.62 20.0607 34.9757 20.1314C35.3313 20.2022 35.6999 20.1659 36.0349 20.0271C36.3699 19.8884 36.6562 19.6534 36.8577 19.3519C37.0591 19.0504 37.1667 18.6959 37.1667 18.3333C37.1667 17.8471 36.9735 17.3808 36.6297 17.037C36.2859 16.6932 35.8196 16.5 35.3333 16.5Z" fill="#4F473F"/>
</g>
<defs>
<clipPath id="clip0_409_561">
<rect width="44" height="44" fill="white" transform="translate(0.5)"/>
</clipPath>
</defs>
</svg>
