<svg width="44" height="44" viewBox="0 0 44 44" fill="none" xmlns="http://www.w3.org/2000/svg">
<g clip-path="url(#clip0_409_622)">
<path d="M23.8332 1.83333C23.8332 1.3471 24.0264 0.880786 24.3702 0.536969C24.714 0.193152 25.1803 -1.9134e-06 25.6665 -1.9134e-06C30.5272 0.00533601 35.1872 1.93859 38.6242 5.3756C42.0612 8.81261 43.9945 13.4727 43.9998 18.3333C43.9998 18.8196 43.8067 19.2859 43.4629 19.6297C43.1191 19.9735 42.6527 20.1667 42.1665 20.1667C41.6803 20.1667 41.214 19.9735 40.8701 19.6297C40.5263 19.2859 40.3332 18.8196 40.3332 18.3333C40.3288 14.4448 38.7822 10.7168 36.0326 7.96726C33.283 5.21767 29.555 3.67103 25.6665 3.66666C25.1803 3.66666 24.714 3.47351 24.3702 3.12969C24.0264 2.78588 23.8332 2.31956 23.8332 1.83333ZM25.6665 11C27.6114 11 29.4767 11.7726 30.852 13.1479C32.2272 14.5231 32.9999 16.3884 32.9999 18.3333C32.9999 18.8196 33.193 19.2859 33.5368 19.6297C33.8806 19.9735 34.347 20.1667 34.8332 20.1667C35.3194 20.1667 35.7857 19.9735 36.1295 19.6297C36.4734 19.2859 36.6665 18.8196 36.6665 18.3333C36.6636 15.4168 35.5037 12.6206 33.4415 10.5584C31.3792 8.4961 28.583 7.33624 25.6665 7.33333C25.1803 7.33333 24.714 7.52649 24.3702 7.8703C24.0264 8.21412 23.8332 8.68043 23.8332 9.16667C23.8332 9.65289 24.0264 10.1192 24.3702 10.463C24.714 10.8068 25.1803 11 25.6665 11ZM42.337 30.6882C43.3994 31.7535 43.9961 33.1967 43.9961 34.7013C43.9961 36.2059 43.3994 37.6491 42.337 38.7145L40.6687 40.6377C25.6537 55.0128 -10.8846 18.4837 3.26872 3.421L5.37705 1.58766C6.44363 0.554906 7.87392 -0.0164119 9.35851 -0.00268804C10.8431 0.0110359 12.2626 0.608698 13.3099 1.661C13.3667 1.71783 16.7639 6.13066 16.7639 6.13066C17.7719 7.18965 18.333 8.59637 18.3306 10.0584C18.3282 11.5204 17.7625 12.9253 16.751 13.981L14.628 16.6503C15.8029 19.505 17.5303 22.0995 19.711 24.2845C21.8916 26.4696 24.4825 28.2022 27.3349 29.3828L30.0207 27.247C31.0765 26.2363 32.4811 25.6712 33.9427 25.6692C35.4043 25.6671 36.8105 26.2283 37.8692 27.236C37.8692 27.236 42.2802 30.6313 42.337 30.6882ZM39.8143 33.3538C39.8143 33.3538 35.4272 29.9787 35.3703 29.9218C34.9927 29.5473 34.4823 29.3372 33.9504 29.3372C33.4186 29.3372 32.9082 29.5473 32.5305 29.9218C32.481 29.9732 28.7832 32.9193 28.7832 32.9193C28.534 33.1177 28.2374 33.2477 27.9227 33.2966C27.608 33.3454 27.286 33.3115 26.9884 33.198C23.2932 31.8222 19.9369 29.6684 17.1467 26.8823C14.3566 24.0963 12.1978 20.7431 10.8165 17.05C10.6941 16.7483 10.6541 16.4195 10.7009 16.0973C10.7476 15.7751 10.8793 15.4711 11.0824 15.2167C11.0824 15.2167 14.0285 11.517 14.078 11.4693C14.4525 11.0916 14.6627 10.5813 14.6627 10.0494C14.6627 9.51754 14.4525 9.00719 14.078 8.6295C14.0212 8.5745 10.646 4.18366 10.646 4.18366C10.2627 3.83993 9.76239 3.65584 9.24767 3.66913C8.73295 3.68243 8.24281 3.8921 7.87772 4.25517L5.76939 6.0885C-4.57427 18.5258 27.0892 48.433 37.9883 38.1333L39.6585 36.2083C40.0499 35.8458 40.285 35.3453 40.314 34.8126C40.3431 34.2799 40.1639 33.7568 39.8143 33.3538Z" fill="#4F473F"/>
</g>
<defs>
<clipPath id="clip0_409_622">
<rect width="44" height="44" fill="white"/>
</clipPath>
</defs>
</svg>
