<svg width="44" height="44" viewBox="0 0 44 44" fill="none" xmlns="http://www.w3.org/2000/svg">
<path d="M38.5 16.9583H36.6666C34.9066 16.9583 33.4583 18.4067 33.4583 20.1667V22C33.4583 22.2567 33.2566 22.4583 33 22.4583H31.845C31.735 22.2933 31.6066 22.1467 31.4783 22C32.1383 21.2667 32.56 20.3133 32.56 19.25V14.6667C32.56 8.855 27.83 4.125 22.0183 4.125C16.2066 4.125 11.4766 8.855 11.4766 14.6667V19.25C11.4766 20.3133 11.8983 21.2667 12.5583 22C12.43 22.1467 12.3016 22.2933 12.1916 22.4583H11.0366C10.78 22.4583 10.5783 22.2567 10.5783 22V20.1667C10.5783 18.4067 9.12995 16.9583 7.36995 16.9583H5.53662C4.78495 16.9583 4.16162 17.5817 4.16162 18.3333C4.16162 19.085 4.78495 19.7083 5.53662 19.7083H7.36995C7.62662 19.7083 7.82829 19.91 7.82829 20.1667V22C7.82829 23.76 9.27662 25.2083 11.0366 25.2083H11.55C11.7883 27.2617 13.5116 28.875 15.62 28.875H20.6616V29.7917H18.37C15.9866 29.7917 13.9883 31.4783 13.4566 33.715C12.3016 34.1917 11.495 35.3467 11.495 36.6667C11.495 38.4267 12.9433 39.875 14.7033 39.875C16.4633 39.875 17.9116 38.4267 17.9116 36.6667C17.9116 35.475 17.2516 34.4483 16.2983 33.8983C16.665 33.11 17.4533 32.5417 18.37 32.5417H25.7033C26.6383 32.5417 27.4266 33.11 27.775 33.8983C26.8033 34.4483 26.1616 35.475 26.1616 36.6667C26.1616 38.4267 27.61 39.875 29.37 39.875C31.13 39.875 32.5783 38.4267 32.5783 36.6667C32.5783 35.3283 31.7716 34.1917 30.6166 33.715C30.1033 31.4783 28.105 29.7917 25.7033 29.7917H23.4116V28.875H28.4533C30.5616 28.875 32.3033 27.2617 32.5233 25.2083H33.0366C34.7966 25.2083 36.245 23.76 36.245 22V20.1667C36.245 19.91 36.4466 19.7083 36.7033 19.7083H38.5366C39.2883 19.7083 39.9116 19.085 39.9116 18.3333C39.9116 17.5817 39.2883 16.9583 38.5366 16.9583H38.5ZM14.2083 36.6667C14.2083 36.41 14.41 36.2083 14.6666 36.2083C14.9233 36.2083 15.125 36.41 15.125 36.6667C15.125 37.18 14.2083 37.18 14.2083 36.6667ZM28.875 36.6667C28.875 36.41 29.0766 36.2083 29.3333 36.2083C29.59 36.2083 29.7916 36.41 29.7916 36.6667C29.7916 37.18 28.875 37.18 28.875 36.6667ZM14.2083 14.6667C14.2083 10.3767 17.71 6.875 22 6.875C26.29 6.875 29.7916 10.3767 29.7916 14.6667V19.25C29.7916 20.0017 29.1683 20.625 28.4166 20.625H15.5833C14.8316 20.625 14.2083 20.0017 14.2083 19.25V14.6667ZM28.4166 26.125H15.5833C14.8316 26.125 14.2083 25.5017 14.2083 24.75C14.2083 23.9983 14.8316 23.375 15.5833 23.375H28.4166C29.1683 23.375 29.7916 23.9983 29.7916 24.75C29.7916 25.5017 29.1683 26.125 28.4166 26.125Z" fill="#4F473F"/>
</svg>
