<svg width="44" height="44" viewBox="0 0 44 44" fill="none" xmlns="http://www.w3.org/2000/svg">
<path d="M39.5266 21.7435C38.775 20.8818 37.84 20.2218 36.85 19.7268C37.5833 18.8468 38.0416 17.7468 38.0416 16.5002C38.0416 13.7135 35.7866 11.4585 33 11.4585C30.2133 11.4585 27.9583 13.7135 27.9583 16.5002C27.9583 17.7285 28.4166 18.8285 29.1316 19.7085C28.0866 20.2218 27.1516 20.9552 26.3816 21.8535C26.1983 21.7435 26.0333 21.6518 25.85 21.5602C26.5833 20.6802 27.0416 19.5618 27.0416 18.3335C27.0416 15.5468 24.7866 13.2918 22 13.2918C19.2133 13.2918 16.9583 15.5468 16.9583 18.3335C16.9583 19.5618 17.4166 20.6802 18.15 21.5602C17.9666 21.6518 17.7833 21.7435 17.6183 21.8535C16.8483 20.9552 15.9133 20.2218 14.8683 19.7085C15.6016 18.8285 16.0416 17.7285 16.0416 16.5002C16.0416 13.7135 13.7866 11.4585 11 11.4585C8.21329 11.4585 5.95829 13.7135 5.95829 16.5002C5.95829 17.7285 6.41662 18.8468 7.14995 19.7268C6.14162 20.2218 5.22495 20.8818 4.47329 21.7435C3.97829 22.3118 4.03329 23.1735 4.60162 23.6868C5.16995 24.1818 6.03162 24.1452 6.54495 23.5585C7.68162 22.2752 9.31329 21.5418 11.0183 21.5418C12.7233 21.5418 14.3733 22.3302 15.4916 23.6318C14.1533 25.1718 13.31 27.1518 13.31 29.3335C13.31 30.0852 13.9333 30.7085 14.685 30.7085C15.4366 30.7085 16.06 30.0852 16.06 29.3335C16.06 26.0518 18.7366 23.3752 22.0183 23.3752C25.3 23.3752 27.9766 26.0518 27.9766 29.3335C27.9766 30.0852 28.6 30.7085 29.3516 30.7085C30.1033 30.7085 30.7266 30.0852 30.7266 29.3335C30.7266 27.1518 29.8833 25.1535 28.545 23.6318C29.6633 22.3302 31.2766 21.5418 33.0183 21.5418C34.76 21.5418 36.355 22.2752 37.4916 23.5585C38.005 24.1268 38.8666 24.1818 39.435 23.6868C40.0033 23.1918 40.0583 22.3118 39.5633 21.7435H39.5266ZM8.70829 16.5002C8.70829 15.2352 9.73495 14.2085 11 14.2085C12.265 14.2085 13.2916 15.2352 13.2916 16.5002C13.2916 17.7652 12.265 18.7918 11 18.7918C9.73495 18.7918 8.70829 17.7652 8.70829 16.5002ZM19.7083 18.3335C19.7083 17.0685 20.735 16.0418 22 16.0418C23.265 16.0418 24.2916 17.0685 24.2916 18.3335C24.2916 19.5985 23.265 20.6252 22 20.6252C20.735 20.6252 19.7083 19.5985 19.7083 18.3335ZM30.7083 16.5002C30.7083 15.2352 31.735 14.2085 33 14.2085C34.265 14.2085 35.2916 15.2352 35.2916 16.5002C35.2916 17.7652 34.265 18.7918 33 18.7918C31.735 18.7918 30.7083 17.7652 30.7083 16.5002Z" fill="#4F473F"/>
</svg>
