<svg width="45" height="44" viewBox="0 0 45 44" fill="none" xmlns="http://www.w3.org/2000/svg">
<g clip-path="url(#clip0_409_84)">
<path d="M35.3333 36.6673H9.66667C7.23641 36.6644 4.90652 35.6977 3.18807 33.9792C1.46962 32.2608 0.502911 29.9309 0.5 27.5007L0.5 16.5007C0.502911 14.0704 1.46962 11.7405 3.18807 10.0221C4.90652 8.3036 7.23641 7.3369 9.66667 7.33398H35.3333C37.7636 7.3369 40.0935 8.3036 41.8119 10.0221C43.5304 11.7405 44.4971 14.0704 44.5 16.5007V27.5007C44.4971 29.9309 43.5304 32.2608 41.8119 33.9792C40.0935 35.6977 37.7636 36.6644 35.3333 36.6673ZM9.66667 11.0007C8.20798 11.0007 6.80903 11.5801 5.77758 12.6116C4.74613 13.643 4.16667 15.042 4.16667 16.5007V27.5007C4.16667 28.9593 4.74613 30.3583 5.77758 31.3897C6.80903 32.4212 8.20798 33.0007 9.66667 33.0007H35.3333C36.792 33.0007 38.191 32.4212 39.2224 31.3897C40.2539 30.3583 40.8333 28.9593 40.8333 27.5007V16.5007C40.8333 15.042 40.2539 13.643 39.2224 12.6116C38.191 11.5801 36.792 11.0007 35.3333 11.0007H9.66667ZM22.5 29.334C21.0496 29.334 19.6318 28.9039 18.4258 28.0981C17.2199 27.2923 16.2799 26.147 15.7249 24.807C15.1698 23.467 15.0246 21.9925 15.3076 20.57C15.5905 19.1475 16.289 17.8408 17.3146 16.8152C18.3401 15.7896 19.6468 15.0912 21.0693 14.8082C22.4919 14.5253 23.9664 14.6705 25.3063 15.2255C26.6463 15.7806 27.7916 16.7205 28.5974 17.9265C29.4032 19.1324 29.8333 20.5503 29.8333 22.0007C29.8333 23.9456 29.0607 25.8108 27.6855 27.1861C26.3102 28.5614 24.4449 29.334 22.5 29.334ZM22.5 18.334C21.7748 18.334 21.0659 18.549 20.4629 18.9519C19.8599 19.3548 19.39 19.9275 19.1124 20.5975C18.8349 21.2675 18.7623 22.0047 18.9038 22.716C19.0453 23.4272 19.3945 24.0806 19.9073 24.5934C20.4201 25.1062 21.0734 25.4554 21.7847 25.5969C22.4959 25.7383 23.2332 25.6657 23.9032 25.3882C24.5732 25.1107 25.1458 24.6407 25.5487 24.0377C25.9516 23.4348 26.1667 22.7258 26.1667 22.0007C26.1667 21.0282 25.7804 20.0956 25.0927 19.4079C24.4051 18.7203 23.4725 18.334 22.5 18.334ZM9.66667 14.6673C9.30407 14.6673 8.94961 14.7748 8.64812 14.9763C8.34663 15.1777 8.11165 15.4641 7.97289 15.7991C7.83413 16.1341 7.79782 16.5027 7.86856 16.8583C7.9393 17.2139 8.11391 17.5406 8.3703 17.797C8.6267 18.0534 8.95337 18.228 9.309 18.2988C9.66463 18.3695 10.0333 18.3332 10.3683 18.1944C10.7033 18.0557 10.9896 17.8207 11.191 17.5192C11.3925 17.2177 11.5 16.8632 11.5 16.5007C11.5 16.0144 11.3068 15.5481 10.963 15.2043C10.6192 14.8605 10.1529 14.6673 9.66667 14.6673ZM33.5 16.5007C33.5 16.8632 33.6075 17.2177 33.809 17.5192C34.0104 17.8207 34.2968 18.0557 34.6317 18.1944C34.9667 18.3332 35.3354 18.3695 35.691 18.2988C36.0466 18.228 36.3733 18.0534 36.6297 17.797C36.8861 17.5406 37.0607 17.2139 37.1314 16.8583C37.2022 16.5027 37.1659 16.1341 37.0271 15.7991C36.8884 15.4641 36.6534 15.1777 36.3519 14.9763C36.0504 14.7748 35.6959 14.6673 35.3333 14.6673C34.8471 14.6673 34.3808 14.8605 34.037 15.2043C33.6932 15.5481 33.5 16.0144 33.5 16.5007ZM9.66667 25.6673C9.30407 25.6673 8.94961 25.7748 8.64812 25.9763C8.34663 26.1777 8.11165 26.4641 7.97289 26.7991C7.83413 27.1341 7.79782 27.5027 7.86856 27.8583C7.9393 28.2139 8.11391 28.5406 8.3703 28.797C8.6267 29.0534 8.95337 29.228 9.309 29.2988C9.66463 29.3695 10.0333 29.3332 10.3683 29.1944C10.7033 29.0557 10.9896 28.8207 11.191 28.5192C11.3925 28.2177 11.5 27.8632 11.5 27.5007C11.5 27.0144 11.3068 26.5481 10.963 26.2043C10.6192 25.8605 10.1529 25.6673 9.66667 25.6673ZM33.5 27.5007C33.5 27.8632 33.6075 28.2177 33.809 28.5192C34.0104 28.8207 34.2968 29.0557 34.6317 29.1944C34.9667 29.3332 35.3354 29.3695 35.691 29.2988C36.0466 29.228 36.3733 29.0534 36.6297 28.797C36.8861 28.5406 37.0607 28.2139 37.1314 27.8583C37.2022 27.5027 37.1659 27.1341 37.0271 26.7991C36.8884 26.4641 36.6534 26.1777 36.3519 25.9763C36.0504 25.7748 35.6959 25.6673 35.3333 25.6673C34.8471 25.6673 34.3808 25.8605 34.037 26.2043C33.6932 26.5481 33.5 27.0144 33.5 27.5007Z" fill="#4F473F"/>
</g>
<defs>
<clipPath id="clip0_409_84">
<rect width="44" height="44" fill="white" transform="translate(0.5)"/>
</clipPath>
</defs>
</svg>
