<svg width="45" height="44" viewBox="0 0 45 44" fill="none" xmlns="http://www.w3.org/2000/svg">
<g clip-path="url(#clip0_409_543)">
<path d="M35.3333 11.0011H26.7552C26.0244 10.4803 25.2032 10.0998 24.3333 9.8791V9.16777L30.805 6.1391C31.0703 5.97468 31.2892 5.74525 31.4411 5.47254C31.5929 5.19984 31.6726 4.89289 31.6726 4.58077C31.6726 4.26865 31.5929 3.96169 31.4411 3.68899C31.2892 3.41628 31.0703 3.18685 30.805 3.02243L24.9383 0.272432C24.4803 0.0583938 23.9756 -0.0364544 23.4711 -0.00330878C22.9666 0.0298368 22.4786 0.189902 22.0525 0.462029C21.6264 0.734156 21.2759 1.10952 21.0337 1.55329C20.7914 1.99706 20.6651 2.49484 20.6667 3.00043V9.8791C19.7973 10.0995 18.9766 10.48 18.2467 11.0011H9.66667C7.23641 11.004 4.90652 11.9707 3.18807 13.6892C1.46962 15.4076 0.502911 17.7375 0.5 20.1678L0.5 38.5011C0.5 39.9598 1.07946 41.3587 2.11091 42.3902C3.14236 43.4216 4.54131 44.0011 6 44.0011H39C40.4587 44.0011 41.8576 43.4216 42.8891 42.3902C43.9205 41.3587 44.5 39.9598 44.5 38.5011V20.1678C44.4971 17.7375 43.5304 15.4076 41.8119 13.6892C40.0935 11.9707 37.7636 11.004 35.3333 11.0011ZM40.496 18.3344H36.5378C35.0799 18.3307 33.6825 17.7516 32.6493 16.7229L30.5923 14.6678H35.3333C36.4668 14.6725 37.5712 15.0273 38.4953 15.6836C39.4194 16.3399 40.1182 17.2658 40.496 18.3344ZM9.66667 14.6678H14.4077L12.3507 16.7229C11.3175 17.7516 9.92006 18.3307 8.46217 18.3344H4.504C4.88182 17.2658 5.58059 16.3399 6.50472 15.6836C7.42885 15.0273 8.53319 14.6725 9.66667 14.6678ZM24.3333 40.3344H20.6667V34.8344C20.6667 34.3482 20.8598 33.8819 21.2036 33.5381C21.5475 33.1943 22.0138 33.0011 22.5 33.0011C22.9862 33.0011 23.4525 33.1943 23.7964 33.5381C24.1402 33.8819 24.3333 34.3482 24.3333 34.8344V40.3344ZM39 40.3344H28V34.8344C28 33.3757 27.4205 31.9768 26.3891 30.9453C25.3576 29.9139 23.9587 29.3344 22.5 29.3344C21.0413 29.3344 19.6424 29.9139 18.6109 30.9453C17.5795 31.9768 17 33.3757 17 34.8344V40.3344H6C5.51377 40.3344 5.04745 40.1413 4.70364 39.7975C4.35982 39.4536 4.16667 38.9873 4.16667 38.5011V22.0011H8.46217C9.66633 22.0041 10.8591 21.7682 11.9715 21.3072C13.084 20.8462 14.0939 20.1691 14.943 19.3153L19.9077 14.3524C20.5953 13.665 21.5277 13.2789 22.5 13.2789C23.4723 13.2789 24.4047 13.665 25.0923 14.3524L30.057 19.3153C30.9061 20.1691 31.916 20.8462 33.0285 21.3072C34.1409 21.7682 35.3337 22.0041 36.5378 22.0011H40.8333V38.5011C40.8333 38.9873 40.6402 39.4536 40.2964 39.7975C39.9525 40.1413 39.4862 40.3344 39 40.3344ZM13.3333 27.5011C13.3333 27.9873 13.1402 28.4536 12.7964 28.7975C12.4525 29.1413 11.9862 29.3344 11.5 29.3344H9.66667C9.18044 29.3344 8.71412 29.1413 8.3703 28.7975C8.02649 28.4536 7.83333 27.9873 7.83333 27.5011C7.83333 27.0149 8.02649 26.5486 8.3703 26.2047C8.71412 25.8609 9.18044 25.6678 9.66667 25.6678H11.5C11.9862 25.6678 12.4525 25.8609 12.7964 26.2047C13.1402 26.5486 13.3333 27.0149 13.3333 27.5011ZM13.3333 34.8344C13.3333 35.3207 13.1402 35.787 12.7964 36.1308C12.4525 36.4746 11.9862 36.6678 11.5 36.6678H9.66667C9.18044 36.6678 8.71412 36.4746 8.3703 36.1308C8.02649 35.787 7.83333 35.3207 7.83333 34.8344C7.83333 34.3482 8.02649 33.8819 8.3703 33.5381C8.71412 33.1943 9.18044 33.0011 9.66667 33.0011H11.5C11.9862 33.0011 12.4525 33.1943 12.7964 33.5381C13.1402 33.8819 13.3333 34.3482 13.3333 34.8344ZM37.1667 27.5011C37.1667 27.9873 36.9735 28.4536 36.6297 28.7975C36.2859 29.1413 35.8196 29.3344 35.3333 29.3344H33.5C33.0138 29.3344 32.5475 29.1413 32.2036 28.7975C31.8598 28.4536 31.6667 27.9873 31.6667 27.5011C31.6667 27.0149 31.8598 26.5486 32.2036 26.2047C32.5475 25.8609 33.0138 25.6678 33.5 25.6678H35.3333C35.8196 25.6678 36.2859 25.8609 36.6297 26.2047C36.9735 26.5486 37.1667 27.0149 37.1667 27.5011ZM37.1667 34.8344C37.1667 35.3207 36.9735 35.787 36.6297 36.1308C36.2859 36.4746 35.8196 36.6678 35.3333 36.6678H33.5C33.0138 36.6678 32.5475 36.4746 32.2036 36.1308C31.8598 35.787 31.6667 35.3207 31.6667 34.8344C31.6667 34.3482 31.8598 33.8819 32.2036 33.5381C32.5475 33.1943 33.0138 33.0011 33.5 33.0011H35.3333C35.8196 33.0011 36.2859 33.1943 36.6297 33.5381C36.9735 33.8819 37.1667 34.3482 37.1667 34.8344ZM26.1667 22.0011C26.1667 22.7263 25.9516 23.4352 25.5487 24.0382C25.1458 24.6412 24.5732 25.1111 23.9032 25.3887C23.2332 25.6662 22.4959 25.7388 21.7847 25.5973C21.0734 25.4558 20.4201 25.1066 19.9073 24.5938C19.3945 24.081 19.0453 23.4277 18.9038 22.7164C18.7623 22.0052 18.8349 21.2679 19.1124 20.5979C19.39 19.9279 19.8599 19.3553 20.4629 18.9524C21.0659 18.5495 21.7748 18.3344 22.5 18.3344C23.4725 18.3344 24.4051 18.7207 25.0927 19.4084C25.7804 20.096 26.1667 21.0286 26.1667 22.0011Z" fill="#4F473F"/>
</g>
<defs>
<clipPath id="clip0_409_543">
<rect width="44" height="44" fill="white" transform="translate(0.5)"/>
</clipPath>
</defs>
</svg>
