<svg width="44" height="44" viewBox="0 0 44 44" fill="none" xmlns="http://www.w3.org/2000/svg">
<g clip-path="url(#clip0_409_634)">
<path d="M40.7 3.96554C39.6694 3.10374 38.4616 2.47942 37.1625 2.13691C35.8635 1.7944 34.5049 1.74209 33.1833 1.98371L26.1763 3.25604C24.5586 3.55312 23.0877 4.38542 22 5.61921C20.9095 4.38329 19.4344 3.5508 17.8127 3.25604L10.8167 1.98371C9.49512 1.74188 8.13657 1.7935 6.83719 2.13491C5.53781 2.47633 4.32935 3.09919 3.29737 3.95941C2.26539 4.81962 1.43511 5.89617 0.865301 7.11284C0.295493 8.32951 8.94895e-05 9.65655 0 11L0 30.7872C0.000105336 32.9337 0.753457 35.012 2.12874 36.66C3.50403 38.308 5.41403 39.4212 7.52583 39.8054L19.0502 41.9009C21.0008 42.2553 22.9993 42.2553 24.9498 41.9009L36.4833 39.8054C38.5935 39.4192 40.5013 38.3053 41.8748 36.6575C43.2482 35.0097 44.0003 32.9324 44 30.7872V11C44.0008 9.65702 43.7055 8.33034 43.1352 7.11446C42.5648 5.89858 41.7333 4.82342 40.7 3.96554ZM20.1667 38.368C20.0127 38.346 19.8587 38.3204 19.7047 38.2929L8.18217 36.1992C6.9149 35.9686 5.76876 35.3006 4.94356 34.3116C4.11837 33.3226 3.66647 32.0753 3.66667 30.7872V11C3.66667 9.54135 4.24613 8.1424 5.27758 7.11095C6.30903 6.0795 7.70798 5.50004 9.16667 5.50004C9.49867 5.50083 9.82995 5.53089 10.1567 5.58987L17.16 6.87321C18.0026 7.0274 18.7647 7.47174 19.3139 8.12912C19.8631 8.7865 20.1648 9.61543 20.1667 10.472V38.368ZM40.3333 30.7872C40.3335 32.0753 39.8816 33.3226 39.0564 34.3116C38.2312 35.3006 37.0851 35.9686 35.8178 36.1992L24.2953 38.2929C24.1413 38.3204 23.9873 38.346 23.8333 38.368V10.472C23.8332 9.61333 24.1345 8.78181 24.6846 8.12246C25.2347 7.4631 25.9988 7.01775 26.8437 6.86404L33.8488 5.58071C34.6422 5.43637 35.4575 5.46824 36.2371 5.67404C37.0168 5.87985 37.7416 6.25457 38.3603 6.77165C38.9791 7.28874 39.4765 7.93554 39.8175 8.66625C40.1584 9.39696 40.3345 10.1937 40.3333 11V30.7872Z" fill="#4F473F"/>
</g>
<defs>
<clipPath id="clip0_409_634">
<rect width="44" height="44" fill="white"/>
</clipPath>
</defs>
</svg>
