<svg width="44" height="44" viewBox="0 0 44 44" fill="none" xmlns="http://www.w3.org/2000/svg">
<path d="M37.0883 20.0567C36.5933 19.8184 36.1533 19.5067 35.7683 19.1584C34.9983 18.4434 34.6499 17.71 34.2466 16.83C33.7883 15.84 33.2566 14.7217 32.1016 13.6584C31.2033 12.8334 30.1216 12.21 28.8749 11.7884V7.33337C28.8749 6.89337 28.6733 6.49003 28.3249 6.23337C27.9766 5.9767 27.5183 5.90337 27.1149 6.01337C25.8683 6.38003 24.7683 7.00337 23.8149 7.7917C22.5499 7.64503 21.2666 7.64503 20.0016 7.7917C17.8933 8.04837 15.8766 8.7267 13.9883 9.79003C13.6216 10.01 13.3649 10.3767 13.3099 10.7984C13.2549 11.22 13.4016 11.66 13.6949 11.9534L14.2449 12.5034C12.7966 13.365 11.4033 14.355 10.1199 15.4367C8.72661 16.5917 7.44328 17.8934 6.28828 19.2684C5.82994 19.8184 5.86661 20.625 6.36161 21.12L7.40661 22.165C5.73828 24.86 4.65661 27.8117 4.14328 30.9284C3.72161 33.495 3.72161 36.1167 4.14328 38.7017C4.25328 39.38 4.83994 39.8567 5.49994 39.8567C5.57328 39.8567 5.64661 39.8567 5.71994 39.8567C6.47161 39.7284 6.98494 39.0317 6.85661 38.28C6.48994 35.9884 6.48994 33.66 6.85661 31.3867C7.36994 28.3067 8.52494 25.3917 10.3033 22.77C10.6699 22.22 10.5966 21.4867 10.1383 21.0284L9.22161 20.1117C10.0466 19.195 10.9449 18.3517 11.8983 17.545C13.5116 16.1884 15.2716 15.015 17.1416 14.0434C17.5266 13.8417 17.8016 13.4567 17.8749 13.035C17.9483 12.6134 17.8016 12.155 17.4899 11.8617L17.0316 11.4034C18.0949 10.9634 19.2133 10.6884 20.3683 10.5417C20.7716 10.4867 21.1933 10.4867 21.5966 10.4684C21.3216 10.945 21.1016 11.44 20.9183 11.9534C17.9849 14.0067 14.1166 17.5817 11.6049 23.3017C8.76328 29.755 9.18494 35.75 9.67994 38.7384C9.78994 39.4167 10.3766 39.8934 11.0366 39.8934C11.1099 39.8934 11.1833 39.8934 11.2566 39.8934C12.0083 39.765 12.5033 39.0684 12.3933 38.3167C11.9533 35.6217 11.5683 30.2317 14.1349 24.42C15.8583 20.4967 18.3149 17.6917 20.5333 15.7484C20.5699 16.1334 20.6066 16.5 20.6983 16.8667C20.8816 17.6 21.6333 18.04 22.3849 17.8567C23.1183 17.655 23.5583 16.9034 23.3749 16.17C22.7149 13.64 23.9249 10.9634 26.1616 9.4967V12.8517C26.1616 13.4934 26.6016 14.0617 27.2433 14.19C28.4716 14.465 29.4983 14.96 30.2683 15.6934C31.0383 16.4084 31.3866 17.16 31.7899 18.0217C32.2483 19.0117 32.7799 20.1117 33.9349 21.1934C34.5033 21.725 35.1633 22.1834 35.8966 22.55C36.6666 22.935 37.1616 23.8517 37.1616 24.8784V25.4834C37.1616 26.8767 36.0249 27.995 34.6499 27.995C33.9716 27.995 33.3483 27.7384 32.8716 27.2617L32.1749 26.565C31.8449 26.235 31.3683 26.0884 30.9283 26.1984C29.8833 26.4184 28.8383 26.4184 27.8299 26.1984C25.3733 25.6667 23.8333 24.0167 23.1549 23.0634C22.7149 22.4584 21.8533 22.3117 21.2299 22.77C20.6249 23.21 20.4783 24.0717 20.9366 24.695C21.5416 25.52 22.6233 26.7484 24.2366 27.7017C23.7783 29.2784 23.3749 30.8734 23.0999 32.4867C22.7516 34.4667 22.5499 36.4834 22.4949 38.5C22.4766 39.2517 23.0633 39.8934 23.8333 39.9117H23.8699C24.6033 39.9117 25.2266 39.325 25.2449 38.5734C25.2999 36.685 25.4833 34.7967 25.8133 32.945C26.0516 31.5334 26.3999 30.14 26.8033 28.7467C26.9499 28.7834 27.0966 28.8384 27.2616 28.875C28.3983 29.1134 29.5716 29.1684 30.7449 29.0034L30.9283 29.1867C31.9183 30.1767 33.2383 30.7267 34.6499 30.7267C37.5466 30.7267 39.9116 28.3617 39.9116 25.465V24.86C39.9116 22.8067 38.8116 20.9184 37.1249 20.075L37.0883 20.0567Z" fill="#4F473F"/>
<path d="M28.9116 18.3335C28.9116 17.5818 28.2883 16.9585 27.5366 16.9585H27.5183C26.7666 16.9585 26.1616 17.5818 26.1616 18.3335C26.1616 19.0852 26.785 19.7085 27.5366 19.7085C28.2883 19.7085 28.9116 19.0852 28.9116 18.3335Z" fill="#4F473F"/>
</svg>
