<svg width="45" height="44" viewBox="0 0 45 44" fill="none" xmlns="http://www.w3.org/2000/svg">
<path d="M39 24.2918H35.0217C34.27 24.2918 33.5367 24.0902 32.895 23.7052L26.35 19.7818C25.2867 19.1402 24.0584 18.7918 22.8117 18.7918H17.1834C16.835 18.7918 16.5417 18.4985 16.5417 18.1502C16.5417 17.8385 16.7617 17.5818 17.055 17.5268L23.8934 16.1518C24.2784 16.0785 24.6634 16.0418 25.0667 16.0418H39C39.7517 16.0418 40.375 15.4185 40.375 14.6668C40.375 13.9152 39.7517 13.2918 39 13.2918H29.3017C29.3384 13.0902 29.375 12.8702 29.375 12.6502C29.375 11.0368 28.2384 9.6435 26.6434 9.33183L22.0784 8.41517C19.8234 7.97517 17.44 8.4335 15.5334 9.71683L14.4517 10.4318C13.4434 11.1102 12.2517 11.4585 11.0417 11.4585H5.98171C5.23005 11.4585 4.60671 12.0818 4.60671 12.8335C4.60671 13.5852 5.23005 14.2085 5.98171 14.2085H11.0417C12.8017 14.2085 14.5067 13.6952 15.9734 12.7052L17.055 11.9902C18.3567 11.1285 19.9884 10.7985 21.5284 11.1102L26.0934 12.0268C26.3867 12.0818 26.6067 12.3568 26.6067 12.6502C26.6067 12.9985 26.3134 13.2918 25.965 13.2918H24.315C24.1134 13.2918 23.93 13.3468 23.7467 13.4202C23.6 13.4385 23.4717 13.4202 23.325 13.4568L16.4867 14.8318C14.91 15.1435 13.755 16.5368 13.755 18.1502C13.755 20.0202 15.2767 21.5418 17.1467 21.5418H22.775C23.5267 21.5418 24.26 21.7435 24.9017 22.1285L31.1717 25.8868C31.2267 26.0152 31.2267 26.2168 31.0617 26.3818C30.42 27.0602 29.7234 27.6835 28.9717 28.2335C28.0367 28.9302 27.0284 29.5535 25.9467 30.0485C23.3434 31.2768 20.1534 30.8185 17.8434 28.8935L12.6 24.5302C11.005 23.1918 8.97005 22.4585 6.89838 22.4585H5.96338C5.21171 22.4585 4.58838 23.0818 4.58838 23.8335C4.58838 24.5852 5.21171 25.2085 5.96338 25.2085H6.89838C7.88838 25.2085 8.84171 25.4652 9.72171 25.9052C9.39171 26.5285 9.19005 27.2435 9.17171 27.9768C9.17171 29.3335 9.72171 30.5985 10.7484 31.4785L13.4434 33.7885C14.305 34.5218 15.35 34.9068 16.4134 34.9068C17.4767 34.9068 18.485 34.5402 19.3467 33.8252L20.2267 33.0918C21.0884 33.3118 21.9867 33.4768 22.8667 33.4768C24.315 33.4768 25.7817 33.1652 27.12 32.5418C28.3484 31.9552 29.54 31.2585 30.6217 30.4335C31.4834 29.7735 32.3084 29.0585 33.0417 28.2702C33.4084 27.8852 33.6467 27.4085 33.775 26.9135C34.1784 26.9868 34.5634 27.0235 34.9667 27.0235H38.945C39.6967 27.0235 40.32 26.4002 40.32 25.6485C40.32 24.8968 39.6967 24.2735 38.945 24.2735L39 24.2918ZM15.2767 31.7168L12.5817 29.3885C12.1784 29.0402 11.9584 28.5452 11.9584 27.9952C11.9584 27.8485 12.0134 27.7202 12.05 27.5918L16.12 30.9835C16.5234 31.3135 16.945 31.5885 17.3667 31.8452C16.7067 32.2485 15.8634 32.2118 15.2767 31.6985V31.7168Z" fill="#4F473F"/>
</svg>
