<svg width="45" height="44" viewBox="0 0 45 44" fill="none" xmlns="http://www.w3.org/2000/svg">
<path d="M22.5 4.125C12.6367 4.125 4.625 12.1367 4.625 22C4.625 31.8633 12.6367 39.875 22.5 39.875C32.3633 39.875 40.375 31.8633 40.375 22C40.375 12.1367 32.3633 4.125 22.5 4.125ZM36.1217 15.4733L29.98 18.5533L23.875 13.97V6.93C29.2833 7.425 33.8667 10.78 36.1217 15.4733ZM18.1183 27.9583L16.67 20.7533L22.4817 16.39L28.2933 20.7533L26.845 27.9583H18.1H18.1183ZM21.125 6.94833V13.9883L15.02 18.5717L8.87833 15.4917C11.1333 10.7983 15.7167 7.44333 21.125 6.94833ZM7.375 22C7.375 20.6433 7.57667 19.3233 7.90667 18.0767L13.9567 21.1017L15.5517 29.0583L12.6367 33.44C9.42833 30.6717 7.39333 26.5833 7.39333 22.0183L7.375 22ZM14.855 35.035L17.7333 30.7083H27.2667L30.145 35.035C27.89 36.355 25.2867 37.125 22.5 37.125C19.7133 37.125 17.11 36.355 14.855 35.035ZM32.3817 33.44L29.4667 29.0583L31.0617 21.1017L37.1117 18.0767C37.4417 19.3233 37.6433 20.6433 37.6433 22C37.6433 26.565 35.6083 30.6533 32.4 33.4217L32.3817 33.44Z" fill="#4F473F"/>
</svg>
