<svg width="45" height="44" viewBox="0 0 45 44" fill="none" xmlns="http://www.w3.org/2000/svg">
<path d="M38.0232 31.7164C37.9847 31.6614 35.1687 28.3889 35.1687 28.3889C36.1919 27.6351 36.8818 26.513 37.0926 25.2597C37.3033 24.0065 37.0184 22.7204 36.2981 21.6734C36.2522 21.6074 32.8422 17.8399 32.8422 17.8399C33.6953 17.4098 34.3907 16.7213 34.8296 15.8728C35.2071 15.1459 35.3767 14.3289 35.3197 13.5119C35.2628 12.6948 34.9815 11.9093 34.5069 11.2418C34.4684 11.1831 25.9581 1.55075 25.9581 1.55075C25.5117 1.0836 24.9752 0.711783 24.3811 0.457754C23.7869 0.203724 23.1475 0.0727539 22.5013 0.0727539C21.8552 0.0727539 21.2157 0.203724 20.6216 0.457754C20.0275 0.711783 19.491 1.0836 19.0446 1.55075C19.0446 1.55075 10.5324 11.1831 10.4939 11.2381C10.0193 11.9056 9.73801 12.6911 9.68108 13.5082C9.62415 14.3253 9.79376 15.1422 10.1712 15.8691C10.6101 16.7177 11.3056 17.4061 12.1586 17.8363C12.1586 17.8363 8.75041 21.6038 8.70274 21.6698C7.98242 22.7167 7.69751 24.0028 7.90827 25.2561C8.11902 26.5093 8.80892 27.6315 9.83207 28.3853C9.83207 28.3853 7.01607 31.6578 6.97757 31.7164C6.41006 32.5416 6.07863 33.5061 6.01903 34.5058C5.95943 35.5055 6.17392 36.5025 6.63938 37.3893C7.10483 38.276 7.80357 39.0189 8.66022 39.5377C9.51688 40.0564 10.4989 40.3315 11.5004 40.3331H20.6671V42.1664C20.6671 42.6526 20.8602 43.119 21.204 43.4628C21.5479 43.8066 22.0142 43.9998 22.5004 43.9998C22.9866 43.9998 23.453 43.8066 23.7968 43.4628C24.1406 43.119 24.3337 42.6526 24.3337 42.1664V40.3331H33.5004C34.5025 40.3328 35.4855 40.0587 36.3432 39.5405C37.2009 39.0222 37.9007 38.2795 38.3671 37.3925C38.8334 36.5055 39.0485 35.508 38.9892 34.5076C38.9299 33.5073 38.5984 32.5421 38.0306 31.7164H38.0232ZM35.1174 35.6893C34.9644 35.9855 34.7323 36.2337 34.4469 36.4062C34.1615 36.5787 33.8339 36.6687 33.5004 36.6664H11.5004C11.1731 36.6669 10.8517 36.5797 10.5695 36.414C10.2872 36.2482 10.0545 36.0099 9.89551 35.7239C9.73648 35.4378 9.65693 35.1144 9.66512 34.7872C9.67331 34.46 9.76894 34.141 9.94207 33.8633L13.8562 29.3331H24.3337C24.82 29.3331 25.2863 29.1399 25.6301 28.7961C25.9739 28.4523 26.1671 27.986 26.1671 27.4998C26.1671 27.0135 25.9739 26.5472 25.6301 26.2034C25.2863 25.8596 24.82 25.6664 24.3337 25.6664H12.7287C12.5142 25.6664 12.3034 25.61 12.1175 25.5028C11.9316 25.3955 11.7773 25.2413 11.6699 25.0555C11.5625 24.8697 11.5059 24.659 11.5058 24.4444C11.5056 24.2298 11.5619 24.019 11.6691 23.8331L16.6594 18.3331H22.5004C22.9866 18.3331 23.453 18.1399 23.7968 17.7961C24.1406 17.4523 24.3337 16.986 24.3337 16.4998C24.3337 16.0135 24.1406 15.5472 23.7968 15.2034C23.453 14.8596 22.9866 14.6664 22.5004 14.6664H14.2504C14.0809 14.6724 13.9131 14.6301 13.7667 14.5444C13.6203 14.4587 13.5013 14.3332 13.4236 14.1824C13.3587 14.0644 13.3262 13.9314 13.3295 13.7968C13.3327 13.6622 13.3715 13.5308 13.4419 13.4161L21.7872 3.97625C21.8747 3.87375 21.9833 3.79143 22.1056 3.73499C22.228 3.67854 22.3611 3.64931 22.4958 3.64931C22.6306 3.64931 22.7637 3.67854 22.886 3.73499C23.0083 3.79143 23.117 3.87375 23.2044 3.97625L31.5461 13.4143C31.617 13.5288 31.6562 13.6601 31.6597 13.7947C31.6633 13.9293 31.631 14.0625 31.5662 14.1806C31.4896 14.33 31.3724 14.4547 31.2281 14.5407C31.0838 14.6266 30.9183 14.6702 30.7504 14.6664H29.1591C28.8062 14.6713 28.4621 14.7773 28.1677 14.9719C27.8733 15.1665 27.6408 15.4414 27.498 15.7641C27.3552 16.0869 27.3079 16.4438 27.3619 16.7926C27.4158 17.1413 27.5687 17.4673 27.8024 17.7318L33.3317 23.8331C33.4389 24.019 33.4952 24.2298 33.495 24.4444C33.4949 24.659 33.4383 24.8697 33.3309 25.0555C33.2235 25.2413 33.0692 25.3955 32.8833 25.5028C32.6975 25.61 32.4867 25.6664 32.2721 25.6664H31.9842C31.6355 25.6717 31.2954 25.7758 31.0033 25.9664C30.7112 26.1571 30.4792 26.4266 30.3339 26.7437C30.1887 27.0608 30.1363 27.4126 30.1827 27.7583C30.2292 28.1039 30.3726 28.4294 30.5964 28.6969L35.0514 33.8633C35.2242 34.1334 35.3215 34.4449 35.3331 34.7654C35.3447 35.0859 35.2702 35.4036 35.1174 35.6856V35.6893Z" fill="#4F473F"/>
</svg>
