<svg width="21" height="20" viewBox="0 0 21 20" fill="none" xmlns="http://www.w3.org/2000/svg">
<path d="M16.3843 6.54499C16.2682 6.42883 16.1304 6.33668 15.9786 6.27382C15.8269 6.21095 15.6643 6.17859 15.5001 6.17859C15.3359 6.17859 15.1733 6.21095 15.0216 6.27382C14.8699 6.33668 14.732 6.42883 14.6159 6.54499L10.7943 10.3658C10.7161 10.4439 10.6102 10.4878 10.4997 10.4878C10.3892 10.4878 10.2832 10.4439 10.2051 10.3658L6.38427 6.54499C6.14989 6.31049 5.83195 6.17871 5.5004 6.17863C5.16885 6.17855 4.85085 6.31019 4.61636 6.54457C4.38186 6.77896 4.25008 7.0969 4.25 7.42844C4.24992 7.75999 4.38155 8.07799 4.61594 8.31249L8.43761 12.1342C8.70845 12.405 9.02999 12.6199 9.38388 12.7665C9.73776 12.9131 10.1171 12.9885 10.5001 12.9885C10.8832 12.9885 11.2624 12.9131 11.6163 12.7665C11.9702 12.6199 12.2918 12.405 12.5626 12.1342L16.3843 8.31249C16.6186 8.07808 16.7503 7.76019 16.7503 7.42874C16.7503 7.09728 16.6186 6.7794 16.3843 6.54499Z" fill="#1E1E1E"/>
</svg>
