<svg width="21" height="21" viewBox="0 0 21 21" fill="none" xmlns="http://www.w3.org/2000/svg">
<path d="M13.6249 8.43748L9.80329 4.61582C9.56879 4.38143 9.25079 4.2498 8.91924 4.24988C8.5877 4.24996 8.26976 4.38174 8.03537 4.61623C7.80099 4.85073 7.66936 5.16873 7.66943 5.50028C7.66951 5.83183 7.80129 6.14977 8.03579 6.38415L11.8574 10.205C11.8963 10.2437 11.927 10.2897 11.948 10.3403C11.969 10.3909 11.9799 10.4452 11.9799 10.5C11.9799 10.5548 11.969 10.6091 11.948 10.6597C11.927 10.7103 11.8963 10.7563 11.8574 10.795L8.03579 14.6158C7.80129 14.8502 7.66951 15.1681 7.66943 15.4997C7.66936 15.8312 7.80099 16.1492 8.03537 16.3837C8.26976 16.6182 8.5877 16.75 8.91924 16.7501C9.25079 16.7502 9.56879 16.6185 9.80329 16.3842L13.6249 12.5625C14.171 12.015 14.4776 11.2732 14.4776 10.5C14.4776 9.72672 14.171 8.98501 13.6249 8.43748Z" fill="#1E1E1E"/>
</svg>
