<svg width="20" height="20" viewBox="0 0 20 20" fill="none" xmlns="http://www.w3.org/2000/svg">
<path d="M15.8841 11.1992L12.0624 7.37834C11.5069 6.84765 10.7682 6.55151 9.99991 6.55151C9.23164 6.55151 8.49294 6.84765 7.93741 7.37834L4.11575 11.1992C3.88125 11.4337 3.74951 11.7517 3.74951 12.0833C3.74951 12.415 3.88125 12.733 4.11575 12.9675C4.35024 13.202 4.66829 13.3337 4.99991 13.3337C5.33154 13.3337 5.64958 13.202 5.88408 12.9675L9.70575 9.14584C9.78388 9.06773 9.88984 9.02385 10.0003 9.02385C10.1108 9.02385 10.2168 9.06773 10.2949 9.14584L14.1157 12.9675C14.3502 13.202 14.6683 13.3337 14.9999 13.3337C15.3315 13.3337 15.6496 13.202 15.8841 12.9675C16.1186 12.733 16.2503 12.415 16.2503 12.0833C16.2503 11.7517 16.1186 11.4337 15.8841 11.1992Z" fill="#6D0E1B"/>
</svg>
