<svg width="41" height="41" viewBox="0 0 41 41" fill="none" xmlns="http://www.w3.org/2000/svg">
<path d="M40.7317 20.9453C40.7317 31.9915 31.6882 40.9458 20.532 40.9458C9.37681 40.9448 0.333313 31.9905 0.333313 20.9453C0.333313 9.89915 9.37681 0.944824 20.533 0.944824C31.6892 0.944824 40.7327 9.89915 40.7327 20.9453H40.7317Z" fill="#9F8E7E"/>
<path d="M26.5172 19.393L26.1807 22.0687C26.1238 22.5157 25.7415 22.8519 25.2881 22.8519H20.9112V34.039C20.4496 34.0803 19.9819 34.1014 19.5092 34.1014C18.4518 34.1014 17.4199 33.9967 16.4225 33.7974V22.8519H13.0562C12.7471 22.8519 12.495 22.6012 12.495 22.2942V18.946C12.495 18.639 12.7471 18.3883 13.0562 18.3883H16.4225V13.367C16.4225 10.2856 18.9347 7.78809 22.0346 7.78809H25.9621C26.2712 7.78809 26.5233 8.03875 26.5233 8.34578V11.694C26.5233 12.001 26.2712 12.2517 25.9621 12.2517H23.1561C21.9167 12.2517 20.9122 13.2503 20.9122 14.4834V18.3893H25.6256C26.1665 18.3893 26.5843 18.8604 26.5183 19.394L26.5172 19.393Z" fill="#EFEEEE"/>
</svg>
