<svg width="41" height="41" viewBox="0 0 41 41" fill="none" xmlns="http://www.w3.org/2000/svg">
<path d="M40.5314 20.9453C40.5314 31.9915 31.488 40.9458 20.3318 40.9458C9.17558 40.9458 0.13208 31.9915 0.13208 20.9453C0.13208 9.89915 9.17558 0.944824 20.3318 0.944824C31.488 0.944824 40.5314 9.89915 40.5314 20.9453Z" fill="#9F8E7E"/>
<path d="M25.8128 10.4539H14.8518C12.0274 10.4539 9.73682 12.7219 9.73682 15.5184V26.3713C9.73682 29.1678 12.0274 31.4359 14.8518 31.4359H25.8128C28.6372 31.4359 30.9278 29.1678 30.9278 26.3713V15.5184C30.9278 12.7219 28.6372 10.4539 25.8128 10.4539ZM29.1008 26.0099C29.1008 28.0071 27.4639 29.6279 25.4468 29.6279H15.2168C13.1997 29.6279 11.5628 28.0071 11.5628 26.0099V15.8808C11.5628 13.8836 13.1997 12.2628 15.2168 12.2628H25.4468C27.4639 12.2628 29.1008 13.8836 29.1008 15.8808V26.0099Z" fill="#EFEEEE"/>
<path d="M20.3419 15.5183C17.3173 15.5183 14.8619 17.9494 14.8619 20.9443C14.8619 23.9391 17.3173 26.3702 20.3419 26.3702C23.3666 26.3702 25.8219 23.9391 25.8219 20.9443C25.8219 17.9494 23.3666 15.5183 20.3419 15.5183ZM20.3419 24.5622C18.3289 24.5622 16.6879 22.9375 16.6879 20.9443C16.6879 18.9511 18.3289 17.3263 20.3419 17.3263C22.355 17.3263 23.9959 18.9511 23.9959 20.9443C23.9959 22.9375 22.355 24.5622 20.3419 24.5622Z" fill="#EFEEEE"/>
<path d="M26.1879 16.2422C25.584 16.2422 25.0919 15.7549 25.0919 15.157C25.0919 14.559 25.584 14.0718 26.1879 14.0718C26.7918 14.0718 27.2839 14.559 27.2839 15.157C27.2839 15.7549 26.7918 16.2422 26.1879 16.2422Z" fill="#EFEEEE"/>
</svg>
